<svg id="deposit_icon" data-name="deposit icon" xmlns="http://www.w3.org/2000/svg" width="30" height="30" viewBox="0 0 30 30">
  <circle id="Ellipse_28" data-name="Ellipse 28" cx="15" cy="15" r="15" fill="#fff"/>
  <path id="Icon_material-attach-money" data-name="Icon material-attach-money" d="M13.445,10.216c-1.642-.427-2.17-.868-2.17-1.556,0-.789.731-1.338,1.953-1.338,1.288,0,1.765.615,1.809,1.519h1.6a2.884,2.884,0,0,0-2.322-2.757V4.5h-2.17V6.063A2.823,2.823,0,0,0,9.61,8.675c0,1.671,1.382,2.5,3.4,2.988,1.809.434,2.17,1.071,2.17,1.744,0,.5-.355,1.3-1.953,1.3-1.49,0-2.076-.666-2.156-1.519H9.48a3.031,3.031,0,0,0,2.662,2.771v1.57h2.17V15.967c1.411-.268,2.532-1.085,2.532-2.568C16.845,11.344,15.087,10.643,13.445,10.216Z" transform="translate(1.605 0.318)" fill="#ffb03a"/>
  <path id="Icon_ionic-md-arrow-dropup" data-name="Icon ionic-md-arrow-dropup" d="M0,4.5,4.5,0,9,4.5Z" transform="translate(19.268 26.318) rotate(180)" fill="#ffb03a"/>
</svg>
